<svg width="187" height="22" viewBox="0 0 187 22" fill="none" xmlns="http://www.w3.org/2000/svg">
<path d="M22.7114 21H13.8914V20.28L16.3214 20.01L13.5614 13.11H6.8114L4.4114 19.5L7.0814 20.28V21H0.811401V20.28L3.0914 19.5L10.3514 0.960009H12.4514L20.4014 20.01L22.7114 20.28V21ZM13.1114 12L10.1714 4.71001L7.2314 12H13.1114Z" fill="#FCC56C"/>
<path d="M29.2678 10.53H30.2878C33.4878 10.53 35.0878 9.00001 35.0878 5.94001C35.0878 4.46001 34.7778 3.39001 34.1578 2.73001C33.5378 2.05001 32.5578 1.71001 31.2178 1.71001C30.3578 1.71001 29.7078 1.75001 29.2678 1.83001V10.53ZM28.7578 0.90001L32.1178 0.810009C36.8778 0.810009 39.2578 2.52001 39.2578 5.94001C39.2578 7.46001 38.7178 8.70001 37.6378 9.66001C36.5578 10.62 35.1678 11.1 33.4678 11.1H32.7778C35.0578 11.4 36.6178 12.09 37.4578 13.17C38.3178 14.25 38.7478 15.89 38.7478 18.09C38.7478 19.45 39.0278 20.28 39.5878 20.58C39.7878 20.7 40.0778 20.76 40.4578 20.76C40.8578 20.76 41.3978 20.6 42.0778 20.28L42.1078 21C41.0278 21.46 39.9278 21.69 38.8078 21.69C36.5678 21.69 35.2178 20.85 34.7578 19.17C34.5978 18.47 34.5178 17.6 34.5178 16.56C34.5178 15.5 34.4478 14.69 34.3078 14.13C34.1878 13.55 33.9978 13.08 33.7378 12.72C33.1578 11.84 32.0678 11.4 30.4678 11.4H29.2678V20.01L31.5478 20.28V21H23.0878V20.28L25.3078 20.04V1.89001L22.7278 1.53001V0.78001C24.4078 0.86001 25.9178 0.90001 27.2578 0.90001H28.7578Z" fill="#FCC56C"/>
<path d="M60.1753 5.49001H59.2753L57.8653 2.04001L53.0353 1.98001V20.01L55.8253 20.28V21H46.2553V20.28L49.0453 20.01V1.98001L44.2153 2.04001L42.8053 5.49001H41.9353V0.960009L51.0553 0.90001L60.1753 0.960009V5.49001Z" fill="#FCC56C"/>
<path d="M68.0862 10.53H69.1062C72.3062 10.53 73.9062 9.00001 73.9062 5.94001C73.9062 4.46001 73.5962 3.39001 72.9762 2.73001C72.3562 2.05001 71.3762 1.71001 70.0362 1.71001C69.1762 1.71001 68.5262 1.75001 68.0862 1.83001V10.53ZM67.5762 0.90001L70.9362 0.810009C75.6962 0.810009 78.0762 2.52001 78.0762 5.94001C78.0762 7.46001 77.5362 8.70001 76.4562 9.66001C75.3762 10.62 73.9862 11.1 72.2862 11.1H71.5962C73.8762 11.4 75.4362 12.09 76.2762 13.17C77.1362 14.25 77.5662 15.89 77.5662 18.09C77.5662 19.45 77.8462 20.28 78.4062 20.58C78.6062 20.7 78.8962 20.76 79.2762 20.76C79.6762 20.76 80.2162 20.6 80.8962 20.28L80.9262 21C79.8462 21.46 78.7462 21.69 77.6262 21.69C75.3862 21.69 74.0362 20.85 73.5762 19.17C73.4162 18.47 73.3362 17.6 73.3362 16.56C73.3362 15.5 73.2662 14.69 73.1262 14.13C73.0062 13.55 72.8162 13.08 72.5562 12.72C71.9762 11.84 70.8862 11.4 69.2862 11.4H68.0862V20.01L70.3662 20.28V21H61.9062V20.28L64.1262 20.04V1.89001L61.5462 1.53001V0.78001C63.2262 0.86001 64.7362 0.90001 66.0762 0.90001H67.5762Z" fill="#FCC56C"/>
<path d="M102.383 10.92C102.383 13.92 101.443 16.41 99.563 18.39C97.703 20.35 95.183 21.33 92.003 21.33C88.843 21.33 86.323 20.35 84.443 18.39C82.583 16.41 81.653 13.92 81.653 10.92C81.653 7.92001 82.583 5.44001 84.443 3.48001C86.323 1.50001 88.843 0.51001 92.003 0.51001C95.183 0.51001 97.703 1.50001 99.563 3.48001C101.443 5.44001 102.383 7.92001 102.383 10.92ZM92.063 20.4C95.903 20.4 97.823 17.24 97.823 10.92C97.823 7.88001 97.383 5.54001 96.503 3.90001C95.643 2.26001 94.153 1.44001 92.033 1.44001C89.913 1.44001 88.403 2.26001 87.503 3.90001C86.623 5.54001 86.183 7.88001 86.183 10.92C86.183 17.24 88.143 20.4 92.063 20.4Z" fill="#FCC56C"/>
<path d="M126.279 10.95C126.279 17.65 122.119 21 113.799 21H104.409V20.28L106.989 19.98V2.01001L104.409 1.65001V0.87001C105.329 0.93001 106.399 0.960009 107.619 0.960009H110.499L114.219 0.840009C116.039 0.840009 117.629 0.99001 118.989 1.29001C120.369 1.59001 121.629 2.10001 122.769 2.82001C125.109 4.30001 126.279 7.01001 126.279 10.95ZM121.749 10.98C121.749 7.52001 121.099 5.12001 119.799 3.78001C119.379 3.32001 118.989 2.98001 118.629 2.76001C118.269 2.52001 117.819 2.34001 117.279 2.22001C116.539 2.04001 115.669 1.93001 114.669 1.89001H114.219C112.759 1.89001 111.689 1.94001 111.009 2.04001V19.95L113.799 20.04C115.699 19.96 117.109 19.7 118.029 19.26C120.509 18.08 121.749 15.32 121.749 10.98Z" fill="#FCC56C"/>
<path d="M146.282 13.98C146.282 15.48 146.072 16.69 145.652 17.61C145.232 18.51 144.762 19.2 144.242 19.68C143.742 20.16 143.052 20.56 142.172 20.88C141.292 21.2 140.262 21.36 139.082 21.36C136.202 21.36 134.052 20.81 132.632 19.71C131.232 18.59 130.532 16.82 130.532 14.4V1.95001L128.012 1.68001V0.960009H137.132V1.68001L134.522 1.95001V13.8C134.522 16.04 134.912 17.69 135.692 18.75C136.472 19.79 137.762 20.31 139.562 20.31C141.362 20.31 142.692 19.82 143.552 18.84C144.412 17.84 144.842 16.13 144.842 13.71V2.13001L142.622 1.83001V0.960009H148.712V1.89001L146.282 2.13001V13.98Z" fill="#FCC56C"/>
<path d="M169.87 21H161.05V20.28L163.48 20.01L160.72 13.11H153.97L151.57 19.5L154.24 20.28V21H147.97V20.28L150.25 19.5L157.51 0.960009H159.61L167.56 20.01L169.87 20.28V21ZM160.27 12L157.33 4.71001L154.39 12H160.27Z" fill="#FCC56C"/>
<path d="M179.156 0.960009V1.65001L176.546 1.95001V20.04L184.016 19.95L185.576 16.53H186.536L186.176 21H169.946V20.28L172.556 20.01V1.95001L169.946 1.65001V0.960009H179.156Z" fill="#FCC56C"/>
</svg>
